# xmcd
#
# Track frame offsets: 
#        150
#        12935
#        24911
#        36954
#        47480
#        57228
#        69526
#        78922
#        91124
#        102813
#        112601
#        123232
#        134639
#        146568
#        158191
#        169665
#        180158
#        192473
#        204202
#        215352
#        229118
#        242679
#        252800
#        265021
#        277742
#
# Disc length: 3865 seconds
#
# Revision: 0
# Processed by: cddbd v1.5.2PL0 Copyright (c) Steve Scherf et al.
# Submitted via: ExactAudioCopy v0.99pb5
#
DISCID=3e0f1719
DTITLE=Various Artist - Nashville Sound - CD2
DYEAR=2014
DGENRE=Country
TTITLE0=The Browns - Three Bells (1959)
TTITLE1=Kitty Wells - Amigo's Guitar (1959)
TTITLE2=Roy Drusky - Another (Just Like Me) (1961)
TTITLE3=Jim Reeves - He'll Have To Go (1959)
TTITLE4=Charlie Rich - Lonely Weekends (1959)
TTITLE5=Eddy Arnold - I'll Hold You In My Heart (Till I Can Hold You I
TTITLE5=n My Arms) (1959)
TTITLE6=Skeeter Davis - Am I That Easy To Forget (1960)
TTITLE7=Don Gibson - Just One Time (1960)
TTITLE8=Charlie Walker - Who Will Buy The Wine (1960)
TTITLE9=Webb Pierce - Is It Wrong (For Loving You) (1960)
TTITLE10=Hank Locklin - Please Help Me I'm Falling (1960)
TTITLE11=Bill Anderson - The Tips Of My Fingers (1960)
TTITLE12=Brenda Lee - I'm Sorry (1960)
TTITLE13=George Jones - The Window Up Above (1960)
TTITLE14=Johnny Tillotson - Poetry In Motion (1960)
TTITLE15=Ferlin Husky - Wings Of A Dove (1960)
TTITLE16=Skeeter Davis - (I Can't Help You) I'm Falling Too (1960)
TTITLE17=Kitty Wells - Heartbreak USA (1961)
TTITLE18=Floyd Cramer - Last Date (1960)
TTITLE19=Brenda Lee - I Want To Be Wanted (1960)
TTITLE20=Marion Worth - I Think I Know (1960)
TTITLE21=The Browns - Send Me The Pillow That You Dream On (1960)
TTITLE22=Roy Drusky - Three Hearts In A Tangle (1961)
TTITLE23=Patsy Cline - I Fall To Pieces (1961)
TTITLE24=Johnny Tillotson - Jimmy's Girl (1960)
EXTD=
EXTT0=
EXTT1=
EXTT2=
EXTT3=
EXTT4=
EXTT5=
EXTT6=
EXTT7=
EXTT8=
EXTT9=
EXTT10=
EXTT11=
EXTT12=
EXTT13=
EXTT14=
EXTT15=
EXTT16=
EXTT17=
EXTT18=
EXTT19=
EXTT20=
EXTT21=
EXTT22=
EXTT23=
EXTT24=
PLAYORDER=
